<svg width="126" height="54" viewBox="0 0 126 54" fill="none" xmlns="http://www.w3.org/2000/svg">
<path d="M125.5 46.8C125.5 50.6 122.4 53.7 118.6 53.7H7.4C3.6 53.7 0.5 50.6 0.5 46.8V7.19999C0.5 3.39999 3.6 0.299988 7.4 0.299988H118.6C122.4 0.299988 125.5 3.39999 125.5 7.19999V46.8Z" fill="#003A2B"/>
<path d="M21.9998 8.60001H27.9998V36C24.9998 36.6 22.6998 36.8 20.2998 36.8C13.0998 36.8 9.2998 33.5 9.2998 27.3C9.2998 21.3 13.2998 17.3 19.4998 17.3C20.4998 17.3 21.1998 17.4 22.0998 17.6V8.60001H21.9998ZM21.9998 22.4C21.2998 22.2 20.6998 22.1 19.9998 22.1C16.9998 22.1 15.2998 23.9 15.2998 27.2C15.2998 30.4 16.9998 32.1 19.9998 32.1C20.6998 32.1 21.1998 32.1 21.9998 31.9V22.4ZM37.3998 17.8V31.5C37.3998 36.2 37.0998 38.5 35.9998 40.5C34.9998 42.4 33.7998 43.6 31.1998 44.9L25.6998 42.3C28.2998 41.1 29.5998 40 30.3998 38.3C31.1998 36.6 31.4998 34.6 31.4998 29.5V17.8H37.3998ZM31.4998 8.70001H37.3998V14.8H31.4998V8.70001ZM40.9998 19.1C43.5998 17.9 46.0998 17.3 48.7998 17.3C51.7998 17.3 53.7998 18.1 54.6998 19.7C55.1998 20.6 55.3998 21.7 55.3998 24.2V36.2C52.6998 36.6 49.3998 36.9 46.8998 36.9C41.8998 36.9 39.6998 35.2 39.6998 31.3C39.6998 27.1 42.6998 25.2 49.8998 24.6V23.3C49.8998 22.2 49.3998 21.8 47.8998 21.8C45.6998 21.8 43.1998 22.4 40.8998 23.6V19.1H40.9998ZM50.1998 28.5C46.2998 28.9 44.9998 29.5 44.9998 31C44.9998 32.2 45.6998 32.7 47.2998 32.7C48.1998 32.7 48.9998 32.6 50.0998 32.4V28.5H50.1998ZM58.2998 18.7C61.7998 17.8 64.6998 17.4 67.5998 17.4C70.5998 17.4 72.7998 18.1 74.0998 19.4C75.2998 20.7 75.6998 22.1 75.6998 25V36.6H69.7998V25.2C69.7998 22.9 68.9998 22.1 66.8998 22.1C66.0998 22.1 65.3998 22.2 64.1998 22.5V36.6H58.2998V18.7ZM77.9998 39.8C80.0998 40.9 82.1998 41.4 84.2998 41.4C88.1998 41.4 89.7998 39.8 89.7998 36.1V36C88.5998 36.6 87.4998 36.8 85.9998 36.8C80.7998 36.8 77.4998 33.4 77.4998 28C77.4998 21.3 82.3998 17.5 90.9998 17.5C93.4998 17.5 95.8998 17.8 98.6998 18.3L96.6998 22.6C95.0998 22.3 96.5998 22.6 95.3998 22.4V23L95.4998 25.5V28.7C95.4998 29.5 95.4998 30.3 95.5998 31.1V32.7C95.5998 37.8 95.1998 40.2 93.8998 42.1C92.0998 45 88.8998 46.4 84.2998 46.4C81.9998 46.4 79.9998 46.1 77.8998 45.2V39.8H77.9998ZM89.7998 22.2H89.1998C87.9998 22.2 86.6998 22.5 85.7998 23C84.3998 23.8 83.5998 25.3 83.5998 27.3C83.5998 30.3 85.0998 32 87.6998 32C88.4998 32 89.1998 31.8 89.8998 31.6V22.2H89.7998ZM108 17.3C113.9 17.3 117.5 21 117.5 27.1C117.5 33.3 113.7 37.2 107.7 37.2C101.8 37.2 98.0998 33.5 98.0998 27.5C98.1998 21.2 102 17.3 108 17.3ZM107.9 32.3C110.2 32.3 111.5 30.4 111.5 27.1C111.5 23.9 110.2 21.9 107.9 21.9C105.6 21.9 104.2 23.8 104.2 27.1C104.3 30.5 105.6 32.3 107.9 32.3Z" fill="white"/>
</svg>
