<svg width="127" height="55" viewBox="0 0 127 55" fill="none" xmlns="http://www.w3.org/2000/svg">
<path d="M126 7.9C126 3.6 122.5 0 118.1 0H7.9C3.5 0 0 3.5 0 7.9V47.2C0 51.5 3.5 55 7.9 55H118.2C122.5 55 126.1 51.5 126.1 47.1V7.9H126ZM124 47.1C124 50.3 121.4 53 118.1 53H7.9C4.6 53 2 50.4 2 47.1V7.9C2 4.6 4.6 2 7.9 2H118.1C121.3 2 124 4.6 124 7.9V47.1ZM29 9H23V18.2C22 18 21.3 17.9 20.4 17.9C14.3 17.9 10.3 21.8 10.3 27.8C10.3 34 14.2 37.2 21.3 37.2C23.7 37.2 26.1 37 29.1 36.4V9H29ZM23 32.3C22 32.4 21.5 32.5 20.9 32.5C17.9 32.5 16.2 30.8 16.2 27.7C16.2 24.5 18 22.7 21 22.7C21.7 22.7 22.1 22.8 23.1 23V32.3H23ZM32 9H38V15H32V9ZM32 29.9C32 35 31.8 36.9 31 38.6C30.2 40.2 29 41.3 26.4 42.5L31.9 45.1C34.5 43.8 35.8 42.6 36.7 40.8C37.7 38.9 38.1 36.6 38.1 31.9V18H32.1V29.9H32ZM49.5 17.9C46.8 17.9 45 18.4 42 19.7V24.2C44 23 46.3 22.4 48.4 22.4C49.9 22.4 50 22.8 50 23.8V25.1C44 25.7 40.1 27.6 40.1 31.7C40.1 35.5 42 37.2 46.9 37.2C49.3 37.2 53 36.9 55 36.6V24.7C55 22.3 55.4 21.1 54.9 20.2C54 18.7 52.5 17.9 49.5 17.9ZM50 32.9C49 33.1 48.4 33.2 47.5 33.2C45.9 33.2 45 32.7 45 31.5C45 30 47 29.4 50 29V32.9ZM67.5 17.9C64.6 17.9 62 18.3 58 19.2V37H64V23.1C65 22.8 66.1 22.7 66.9 22.7C69 22.7 70 23.5 70 25.8V37H76V25.5C76 22.6 75.4 21.2 74.2 19.9C72.9 18.6 70.5 17.9 67.5 17.9ZM96.5 23L98.6 18.8C95.8 18.2 93.5 18 91 18C82.4 18 77.6 21.8 77.6 28.4C77.6 33.8 80.9 37.2 86 37.2C87.5 37.2 88.8 37 89.8 36.4V36.5C89.8 40.2 88 41.8 84.2 41.8C82 41.8 79.8 41.3 77.8 40.2V45.6C79.8 46.4 81.9 46.7 84.2 46.7C88.7 46.7 92.1 45.3 93.9 42.4C95.2 40.5 95.8 38.1 95.8 33.1V31.5L95.6 29.1L95.4 26L95 23.5V22.9C97 23 95 22.7 96.5 23ZM90 31.6V32C89 32.2 88.6 32.4 87.8 32.4C85.2 32.4 83.8 30.7 83.8 27.8C83.8 25.7 84.5 24 85.9 23.2C86.8 22.6 88.1 22 89.3 22H90V31.6ZM107.9 17.9C101.9 17.9 98.2 21.7 98.2 27.9C98.2 33.8 101.8 37.5 107.7 37.5C113.6 37.5 117.4 33.7 117.4 27.5C117.3 21.5 113.7 17.9 107.9 17.9ZM107.8 32.8C105.5 32.8 104.2 30.9 104.2 27.7C104.2 24.5 105.5 22.6 107.9 22.6C110.1 22.6 111.4 24.5 111.4 27.7C111.3 30.9 110 32.8 107.8 32.8Z" fill="#003A2B"/>
</svg>
