<svg width="70" height="70" viewBox="-8 -9 88 88" fill="none" xmlns="http://www.w3.org/2000/svg">
<path d="M34.9999 0C26.6891 0.000353345 18.6496 3.03271 12.3199 8.55449C5.99019 14.0763 1.78334 21.7271 0.452059 30.1381C-0.87922 38.5491 0.751952 47.1714 5.05371 54.4621C9.35546 61.7529 16.0471 67.2363 23.9312 69.9313C25.6812 70.2454 26.3375 69.1688 26.3375 68.2268C26.3375 67.3745 26.2937 64.5485 26.2937 61.5432C17.5 63.2028 15.225 59.3453 14.525 57.3268C13.7483 55.3636 12.517 53.6238 10.9375 52.2579C9.71253 51.585 7.96254 49.9253 10.8937 49.8805C12.013 50.0051 13.0865 50.4044 14.0232 51.0447C14.96 51.6849 15.7324 52.5473 16.275 53.5587C16.7537 54.4404 17.3974 55.2166 18.1691 55.8428C18.9409 56.469 19.8256 56.9329 20.7726 57.2079C21.7195 57.4829 22.7101 57.5636 23.6875 57.4455C24.6649 57.3273 25.61 57.0125 26.4686 56.5192C26.6201 54.6949 27.4131 52.9892 28.6999 51.7197C20.9125 50.8226 12.775 47.7273 12.775 34.0014C12.7258 30.4349 14.0094 26.9843 16.3625 24.3572C15.2925 21.2575 15.4177 17.8558 16.7125 14.8476C16.7125 14.8476 19.6436 13.9056 26.3374 18.5259C32.0644 16.9109 38.1103 16.9109 43.8373 18.5259C50.5309 13.8608 53.4622 14.8476 53.4622 14.8476C54.7572 17.8558 54.8824 21.2575 53.8122 24.3572C56.1724 26.9798 57.4571 30.4334 57.3997 34.0014C57.3997 47.7722 49.2184 50.8226 41.4311 51.7197C42.2663 52.5877 42.9096 53.6298 43.3173 54.7753C43.7249 55.9209 43.8873 57.1429 43.7935 58.3585C43.7935 63.1582 43.7498 67.0157 43.7498 68.2269C43.7498 69.1689 44.406 70.2903 46.156 69.9314C54.0263 67.2145 60.6987 61.7182 64.9821 54.4237C69.2655 47.1293 70.8812 38.5114 69.5407 30.1086C68.2002 21.7057 63.9908 14.0648 57.6638 8.54969C51.3369 3.03464 43.3043 0.00443149 34.9999 0Z" />
</svg>
