<svg width="32" height="28" viewBox="0 0 32 28" fill="none" xmlns="http://www.w3.org/2000/svg">
<g clip-path="url(#clip0_529_69)">
<path d="M23 4C25.757 4 28 6.692 28 10C28 16.308 20.363 21.425 16 23.601C11.632 21.422 4 16.307 4 10C4 6.692 6.243 4 9 4C9.76571 4.07821 10.5033 4.33099 11.156 4.73891C11.8087 5.14683 12.3591 5.69902 12.765 6.353L14.383 8.125C14.5686 8.37994 14.8118 8.58739 15.0928 8.73042C15.3738 8.87345 15.6847 8.94801 16 8.94801C16.3153 8.94801 16.6262 8.87345 16.9072 8.73042C17.1882 8.58739 17.4314 8.37994 17.617 8.125L19.235 6.353C19.6409 5.69902 20.1913 5.14683 20.844 4.73891C21.4967 4.33099 22.2343 4.07821 23 4ZM23 0C21.6018 0.0735351 20.2404 0.473665 19.0247 1.16831C17.8091 1.86294 16.7732 2.83277 16 4C15.2268 2.83277 14.1909 1.86294 12.9753 1.16831C11.7596 0.473665 10.3982 0.0735351 9 0C4.03 0 0 4.477 0 10C0 21.438 16 28 16 28C16 28 32 21.437 32 10C32 4.477 27.97 0 23 0Z" />
</g>
<defs>
<clipPath id="clip0_529_69">
<rect width="32" height="28" fill="white"/>
</clipPath>
</defs>
</svg>
