<svg width="18" height="18" viewBox="0 0 18 18" fill="none" xmlns="http://www.w3.org/2000/svg">
<path d="M3.80934 3.12894C4.35137 3.56924 4.55481 3.53582 5.57348 3.46752L15.1753 2.89134C15.3787 2.89134 15.2094 2.6879 15.1419 2.65448L13.5463 1.50139C13.2411 1.26452 12.8335 0.992782 12.0531 1.06035L2.75652 1.73898C2.41793 1.77241 2.34963 1.94243 2.48478 2.07757L3.80934 3.12894ZM4.38552 5.36681V15.4692C4.38552 16.012 4.65653 16.2154 5.26759 16.1813L15.8198 15.5709C16.4308 15.5375 16.4991 15.1641 16.4991 14.723V4.68818C16.4991 4.24787 16.3298 4.01028 15.9556 4.0437L4.92828 4.68818C4.52139 4.72233 4.38552 4.9265 4.38552 5.36681ZM14.8025 5.90811C14.8701 6.21328 14.8025 6.51844 14.4974 6.55332L13.9888 6.65504V14.1127C13.547 14.3503 13.1401 14.4862 12.8008 14.4862C12.2573 14.4862 12.1214 14.3161 11.7146 13.8083L8.38899 8.58703V13.6382L9.44108 13.8765C9.44108 13.8765 9.44108 14.4869 8.59243 14.4869L6.25138 14.622C6.18381 14.4869 6.25138 14.1476 6.48898 14.08L7.09931 13.9107V7.23122L6.25284 7.16292C6.18454 6.85776 6.35456 6.41745 6.82902 6.3833L9.34009 6.21401L12.8015 11.5028V6.82361L11.9187 6.72261C11.8512 6.34915 12.1222 6.07814 12.4615 6.04471L14.8025 5.90811ZM1.97617 0.823488L11.647 0.111437C12.8342 0.0097155 13.1401 0.0772877 13.8863 0.620045L16.9736 2.78962C17.4822 3.16236 17.6522 3.26408 17.6522 3.67097V15.5709C17.6522 16.3164 17.3812 16.7582 16.4315 16.825L5.20002 17.5037C4.48797 17.5378 4.14793 17.4361 3.77446 16.9609L1.50098 14.011C1.0941 13.4682 0.924805 13.062 0.924805 12.5869V2.00927C0.924805 1.39967 1.19655 0.890334 1.97617 0.823488Z"/>
</svg>
